<svg enable-background="new 0 0 320 544" viewBox="0 0 320 544" xmlns="http://www.w3.org/2000/svg"><path d="m63.7 130.9 65.5-69.7 2.2-25.2 6.4 25.8-51.6 72.9z" fill="#df9481"/><g fill="#ffbe55"><path d="m38.4 156 41.8-42.7 19.5 32.3-46.7 50.2z"/><path d="m38.4 156 41.8-42.7 19.5 32.3-46.7 50.2z" opacity=".2"/><path d="m-3.8 401.9-10.2 45.3-13.4-38.2 8.7-7-11.2 1.4-1.5-5.6 24.5-7.2z"/></g><path d="m42.4 256.9s47.2 79.5 43.3 92.7c-3.8 13.3-89.7 56.5-89.7 56.5l-4.8-16.8s56-45.2 64-45.4c-18.6-9.1-51.7-72-51.7-72z" fill="#093c59"/><path d="m.4 476 29 36.1-39.4-14.5.3-10.7-6.5 9-5.4-2.5 10.8-22.3z" fill="#ffbe55"/><path d="m38.1 258.9s-20.7 133.9-30.6 223.3c-19.5 5.3-22-13.4-22-13.4s-7.3-179.9 7.8-210.8c34.3-7 44.8.9 44.8.9z" fill="#0b4870"/><path d="m-12.3 213.5-48.9 73.7-33 15.3 34.9-7.1 56.4-62.1z" fill="#df9481"/><path d="m30.6 143c14.6-4 23.2-19 19.3-33.7-4-14.7-19-23.3-33.6-19.4-14.7 4-23.3 19.1-19.3 33.7 3.9 14.7 19 23.4 33.6 19.4z" fill="#0b4870"/><path d="m43.6 92s18.5 40.1 12.5 50.8c-25.4 5.1-34.1-2.1-43.7-12.8-9.5-10.8-2.2-40 31.2-38z" fill="#df9481"/><path d="m49.9 90.3c1.2 9.6-30 43.2-39.4 41.4-5.8-16.5-4.2-49.7 39.4-41.4z" fill="#0b4870"/><path d="m16.8 130.9c-4-2.2-7.1-1.7-6.5 2.3.5 3.7 6.8 7.5 10.1 5.7 3.3-1.7-3.6-8-3.6-8z" fill="#df9481"/><path d="m8.9 96.5c-11.6-8.9-28.3-11.2-42.4-6-4.8 1.8-9.4 4.5-12.4 8.4-3 4-4.2 9.4-2.1 13.8 3.5 7.2 14.5 9.9 15.7 17.8.5 3.5-1.2 7-3.7 9.6s-5.7 4.5-8.9 6.3c-7.2 4.1-14.5 8.3-19.4 14.8-4.9 6.4-6.8 15.7-2.2 22.1 3 4.2 8.5 7.2 8.7 12.3.3 5.3-5.3 9.2-6.8 14.3-1.5 5 1.5 10.4 6 13.2s10.2 3.3 15.6 2.8c8.7-.8 18.3-5.2 20.5-13.3 1.5-5.6-1-11.5-4.5-16.2s-8-8.6-11.2-13.4-5.1-11.1-2.7-16.5c2.5-5.6 8.9-8.7 14.5-11.6 5.7-2.9 11.8-6.9 12.8-12.9 1-5.4-2.6-11.2-.2-16.3 2.2-4.6 7.9-6.2 12.3-8.9 6-3.8 9.7-10.7 9.5-17.5z" fill="#0b4870"/><path d="m37.9 139.8 2.6 14.5 16.3 20.4-29.8-16.1-7-21.3z" fill="#df9481"/><path d="m68.6 200.1-12.6 21.1-5 44.3-49.8-3-16.8-1 11.8-16.7s-19.9-11.3-26-21.8c22.4-30.8 39.3-55.2 57-64.3l5-1.4 24.8 17.4z" fill="#ffbe55"/><path d="m19.4 211.4-18.1 51-16.9-1 11.8-16.7z" fill="#ffbe55" opacity=".5"/><path d="m286.5 208.4c-2.3 30.4-3.4 73 17.7 91.3 21.2 18.3 95-5.4 95-5.4l-8.5-19.9s-54.5 4-54-3 1-56.7-2.6-62.4-11.4-23.7-11.4-23.7z" fill="#b1d9f2"/><path d="m288.8 202.2c3.2 9.8 137.3 172.4 137.3 172.4l23.1-12.3s-90.6-158.1-101.2-179.2-59.2 19.1-59.2 19.1z" fill="#cce9ff"/><path d="m240.6 78.8-93.1-22.7-16.2-20.2 6.4 25.8 86.2 32.5z" fill="#ffe3ca"/><path d="m272.9 85.8-45.6-16.1-14.7 26.3 56.3 25.4z" fill="#0b3e5b"/><path d="m272.9 85.8c-1.2 1.7-13.1 16.4-16.6 30.5s27.1 98.4 27.1 98.4l78.3-25.3-33-59.4 20.2 11.9 21.6-29.4s-39.5-30-46.8-32.3c-13.7-4.1-50.8 5.6-50.8 5.6z" fill="#0b4870"/><path d="m258.7 25.3c6.5-1.3 38.9-5 22.8 37.9-2.9 10.9-22.8-37.9-22.8-37.9z" fill="#0b4870"/><path d="m233.8 41s6.2 38.8 17.1 44.5c6-2.4 15.6-5.2 19.3-7.8 11.2-7.7 7.1-15.4 10.4-22.2 6.4-13.1-19.9-34.3-46.8-14.5z" fill="#ffe3ca"/><path d="m267.1 72.3 5.2 14.3-.4 9.1c-.3 3.5 4.6 4.8 6.3 1.6l10-14.9-8.2-26.7z" fill="#ffe3ca"/><path d="m250.7 47.7c-3 .7-5.8 2.1-8.6 3.5-2.8 1.3-6 2.4-9 1.5-4-1.2-5.9-5.6-9.3-8-2.4-1.7-5.4-2.3-8.2-3.5-.4-.2-.8-.4-1.1-.7-.6-.8-.3-1.9.2-2.7 1.5-3.1 4-5.9 7.2-7.6s7-2.3 10.4-1.4c3.1.8 5.9 2.9 9.2 2.8 4.9-.1 8.3-4.9 12.8-7 1.6-.7 3.3-1.1 5-1.2 1.1 0 2.2.1 3.2.5 2.7 1.1 4.1 4.2 6.8 5.4 2.8 1.3 6.3.4 9.1 1.7 1.9.9 3.1 2.8 4.2 4.6 1.3 2.2 2.7 4.8 1.9 7.3-.4 1.1.2 9.7-.6 10.5-4.8 4.8-12.4-.1-18.5-1.2-2.2-.4-4.2-1.5-5.8-2.8-1.6-1.2-4.4-2.7-8.9-1.7z" fill="#0b4870"/><path d="m270.8 46.1 3.8 13.6 2.8-.9.9-15.1z" fill="#0b4870"/><path d="m275.2 46.7c4.5-5.6 6.7-4.6 7.9 1.6s-5.6 10.5-5.6 10.5z" fill="#ffe3ca"/><path d="m277.9 155c4.5-1.4 5.6-10 2.7-19.1s-9-15.3-13.5-13.9-5.6 10-2.7 19.1c3 9.1 9 15.3 13.5 13.9z" fill="#ffbe55"/><path d="m103.7 15.1c-12.7 3.4-20.3 16-17.1 28-3.3-12-16.2-19-28.9-15.6 12.7-3.4 20.3-16 17.1-28 3.3 12 16.2 19 28.9 15.6z" fill="#ffbe55"/><path d="m178.8 90.4c-6.4 1.7-10.2 8-8.5 14-1.6-6-8.1-9.5-14.5-7.8 6.4-1.7 10.2-8 8.5-14 1.6 6 8.1 9.5 14.5 7.8z" fill="#ffbe55"/></svg>